<svg width="157" height="33" viewBox="0 0 157 33" fill="none" xmlns="http://www.w3.org/2000/svg">
<path d="M134.588 0.659787C134.999 1.0479 135.186 1.51363 135.186 2.05698C135.186 2.60034 135.111 2.67796 134.962 3.02726L124.13 29.6516C123.943 30.0785 123.644 30.4278 123.271 30.6607C122.897 30.8936 122.524 31.01 122.113 31.01C121.739 31.01 121.403 30.8548 121.067 30.6219C120.731 30.389 120.469 30.0785 120.282 29.6904L109.45 3.02726C109.338 2.79439 109.264 2.4839 109.264 2.09579C109.264 1.47482 109.488 0.970275 109.899 0.582165C110.309 0.194055 110.795 0 111.318 0C112.177 0 112.775 0.465732 113.186 1.3972L122.449 24.1404L131.189 1.35839C131.376 0.931464 131.638 0.620976 131.974 0.38811C132.31 0.155244 132.646 0.0388108 133.057 0.0388108C133.617 0.0388108 134.103 0.232866 134.514 0.620976L134.588 0.659787Z" fill="#E9E9E9"/>
<path d="M17.1387 1.24663C18.4938 2.10369 19.5698 3.23345 20.3669 4.67487C21.164 6.11629 21.5626 7.71354 21.5626 9.46662C21.5626 11.2197 21.164 12.8169 20.3669 14.2973C19.5698 15.7777 18.4938 16.9464 17.1387 17.8035C15.7836 18.6605 14.309 19.0891 12.7148 19.0891H4.18575V28.8673C4.18575 29.4517 3.98648 29.9581 3.58793 30.3867C3.18937 30.8152 2.71111 31.01 2.07343 31.01C1.43575 31.01 0.91763 30.8152 0.558934 30.4256C0.200237 30.0361 0.000961304 29.5296 0.000961304 28.9063V2.14265C0.000961304 1.55829 0.200237 1.05185 0.638644 0.623316C1.07705 0.194786 1.59517 0 2.19299 0H12.7148C14.309 0 15.7836 0.42853 17.1387 1.24663ZM14.9466 14.2973C15.6242 13.7909 16.1822 13.0896 16.6206 12.2326C17.0191 11.3755 17.2184 10.4406 17.2184 9.46662C17.2184 7.94729 16.78 6.70065 15.8633 5.64881C14.9865 4.59696 13.9104 4.09051 12.6749 4.09051H4.1459V15.0765H12.6749C13.472 15.0765 14.2293 14.8038 14.9466 14.2973Z" fill="#E9E9E9"/>
<path d="M51.6479 30.3921C51.2217 30.8169 50.6676 31.01 49.9857 31.01C49.3038 31.01 48.7923 30.8169 48.3661 30.3921C47.9399 29.9673 47.7268 29.5039 47.7268 28.886V9.84751C47.7268 9.26824 47.9399 8.76621 48.3661 8.34142C48.7923 7.91662 49.3464 7.72354 49.9857 7.72354C50.625 7.72354 51.2217 7.91662 51.6479 8.34142C52.0741 8.76621 52.2872 9.26824 52.2872 9.84751V28.886C52.2872 29.4653 52.0741 29.9673 51.6479 30.3921ZM52.3299 2.08535C52.3299 3.24389 51.307 4.17071 50.0283 4.17071C48.7497 4.17071 47.7268 3.24389 47.7268 2.08535C47.7268 0.926825 48.7497 0 50.0283 0C51.307 0 52.3299 0.926825 52.3299 2.08535Z" fill="#E9E9E9"/>
<path d="M78.7422 2.10105C80.7463 3.50176 82.2395 5.36936 83.2612 7.70386C84.2829 10.0384 84.7938 12.6452 84.7938 15.5245C84.7938 18.4037 84.2829 21.0494 83.2612 23.3839C82.2395 25.7185 80.7463 27.5861 78.7422 28.9478C76.7381 30.3096 74.341 31.01 71.551 31.01H60.5481C59.9587 31.01 59.4478 30.8155 59.0155 30.3875C58.5833 29.9595 58.3868 29.4926 58.3868 28.87V2.13996C58.3868 1.55634 58.5833 1.05053 59.0155 0.622534C59.4478 0.194542 59.9194 0 60.5481 0H71.551C74.341 0 76.7381 0.700351 78.7422 2.06214V2.10105ZM77.9562 23.6952C79.4888 21.5553 80.2354 18.8317 80.2354 15.4855C80.2354 12.1394 79.4495 9.45474 77.917 7.31478C76.3844 5.17482 74.1052 4.08538 71.1187 4.08538H62.8666V26.9246H71.1187C74.1445 26.9246 76.4237 25.8741 77.9562 23.7341V23.6952Z" fill="#E9E9E9"/>
<path d="M108.645 20.7404C108.221 21.0945 107.758 21.2912 107.18 21.2912H91.751C91.9439 23.4548 92.7539 25.2251 94.1811 26.5233C95.6082 27.8215 97.3439 28.4902 99.3882 28.4902C101.433 28.4902 101.934 28.2935 102.821 27.8608C103.708 27.4281 104.48 26.9167 105.135 26.2479C105.56 25.9725 105.984 25.8545 106.408 25.8545C106.833 25.8545 107.334 26.0512 107.643 26.4053C107.951 26.7593 108.144 27.192 108.144 27.6641C108.144 28.1362 107.835 28.8443 107.257 29.3557C106.408 30.2211 105.29 30.9686 103.863 31.5587C102.474 32.1487 101.008 32.4635 99.5811 32.4635C97.2282 32.4635 95.1453 31.952 93.3325 30.9292C91.5196 29.9064 90.131 28.4902 89.1667 26.6806C88.2024 24.871 87.701 22.7861 87.701 20.5044C87.701 18.2228 88.2024 15.7837 89.2053 13.8955C90.2082 12.0072 91.5582 10.5517 93.2168 9.52885C94.8753 8.50603 96.6496 7.99463 98.5397 7.99463C100.43 7.99463 102.165 8.50603 103.785 9.48951C105.405 10.473 106.755 11.8498 107.72 13.5808C108.723 15.3117 109.224 17.2393 109.263 19.4029C109.263 19.9537 109.031 20.3864 108.607 20.7798L108.645 20.7404ZM94.2968 13.3841C93.101 14.3282 92.291 15.7837 91.9439 17.7507H104.904V17.3966C104.75 15.8231 104.055 14.5249 102.821 13.5021C101.587 12.4793 100.16 11.9679 98.5782 11.9679C96.9968 11.9679 95.5311 12.4399 94.3353 13.3841H94.2968Z" fill="#E9E9E9"/>
<path d="M155.445 26.5436C154.402 28.3985 153.011 29.8587 151.234 30.8848C149.457 31.9504 147.486 32.4635 145.361 32.4635C143.237 32.4635 141.266 31.9504 139.489 30.8848C137.712 29.8192 136.321 28.3985 135.278 26.5436C134.235 24.6887 133.733 22.597 133.733 20.2685C133.733 17.94 134.235 15.8089 135.278 13.954C136.321 12.0596 137.712 10.5994 139.489 9.57326C141.266 8.50769 143.198 7.99463 145.361 7.99463C147.525 7.99463 149.457 8.50769 151.234 9.57326C153.011 10.6388 154.402 12.0991 155.445 13.954C156.488 15.8483 156.99 17.94 156.99 20.2685C156.99 22.597 156.488 24.6887 155.445 26.5436ZM151.813 15.8878C151.157 14.6249 150.268 13.6382 149.148 12.9279C148.027 12.2175 146.752 11.8623 145.4 11.8623C144.048 11.8623 142.773 12.2175 141.653 12.9279C140.532 13.6382 139.644 14.6249 138.987 15.8878C138.33 17.1507 137.982 18.6109 137.982 20.229C137.982 21.8471 138.33 23.2284 138.987 24.4914C139.644 25.7543 140.532 26.7409 141.653 27.4118C142.773 28.1222 144.048 28.4774 145.4 28.4774C146.752 28.4774 148.027 28.1222 149.148 27.4118C150.268 26.7014 151.157 25.7148 151.813 24.4914C152.47 23.2284 152.818 21.8077 152.818 20.229C152.818 18.6504 152.47 17.1507 151.813 15.8878Z" fill="#E9E9E9"/>
<path d="M20.5504 30.9711C20.2759 30.9711 20.0014 30.9322 19.7269 30.8155C18.6288 30.3875 18.119 29.1424 18.5896 28.053L29.766 1.28398C30.0798 0.505809 30.8641 0 31.7268 0C32.5895 0 33.3739 0.505809 33.6876 1.28398L44.6679 27.5861C45.0993 28.6755 44.5895 29.8816 43.5307 30.3486C42.4326 30.7765 41.217 30.2707 40.7464 29.2202L31.7268 7.62605L22.5112 29.726C22.1582 30.5431 21.3739 31.01 20.5504 31.01V30.9711Z" fill="url(#paint0_linear_91_2004)"/>
<defs>
<linearGradient id="paint0_linear_91_2004" x1="31.6092" y1="0" x2="31.6092" y2="30.9711" gradientUnits="userSpaceOnUse">
<stop stop-color="#4AD8E0"/>
<stop offset="0.2" stop-color="#49D2DF"/>
<stop offset="0.3" stop-color="#47C1DF"/>
<stop offset="0.5" stop-color="#45A5DF"/>
<stop offset="0.8" stop-color="#417FDF"/>
<stop offset="1" stop-color="#3C49DF"/>
</linearGradient>
</defs>
</svg>
